<svg width="20" height="22" viewBox="0 0 20 22" fill="none" xmlns="http://www.w3.org/2000/svg">
<path d="M8.00873 17C7.61144 17 7.22309 17.1278 6.89275 17.3673C6.56242 17.6068 6.30493 17.9473 6.15292 18.3455C6.00086 18.7438 5.96109 19.1821 6.0386 19.6049C6.1161 20.0277 6.30742 20.4161 6.58836 20.7209C6.8693 21.0257 7.22719 21.2333 7.61688 21.3174C8.00652 21.4015 8.41039 21.3584 8.77746 21.1934C9.14452 21.0284 9.45822 20.7491 9.67893 20.3906C9.89965 20.0322 10.0175 19.6108 10.0175 19.1797C10.0169 18.6018 9.8051 18.0477 9.4285 17.6391C9.05194 17.2305 8.5413 17.0006 8.00873 17ZM8.00873 20.4215C7.78234 20.4215 7.56098 20.3486 7.37275 20.2121C7.18448 20.0756 7.03776 19.8816 6.95114 19.6546C6.86446 19.4277 6.84179 19.1779 6.88598 18.9369C6.93017 18.696 7.03919 18.4747 7.19927 18.301C7.35939 18.1272 7.56333 18.0089 7.78543 17.961C8.00748 17.9131 8.23765 17.9377 8.44684 18.0317C8.65599 18.1257 8.83478 18.2849 8.96057 18.4892C9.08636 18.6934 9.1535 18.9336 9.1535 19.1793C9.15322 19.5086 9.0325 19.8244 8.81787 20.0573C8.60328 20.2902 8.31225 20.4211 8.00873 20.4215Z" fill="#F77457"/>
<path d="M15.0087 17C14.6114 17 14.2231 17.1278 13.8928 17.3673C13.5624 17.6068 13.3049 17.9473 13.1529 18.3455C13.0009 18.7438 12.9611 19.1821 13.0386 19.6049C13.1161 20.0277 13.3074 20.4161 13.5883 20.7209C13.8693 21.0257 14.2272 21.2333 14.6168 21.3174C15.0065 21.4015 15.4104 21.3584 15.7775 21.1934C16.1445 21.0284 16.4582 20.7491 16.6789 20.3906C16.8996 20.0322 17.0175 19.6108 17.0175 19.1797C17.0169 18.6018 16.8051 18.0477 16.4285 17.6391C16.0519 17.2305 15.5413 17.0006 15.0087 17ZM15.0087 20.4215C14.7823 20.4215 14.561 20.3486 14.3728 20.2121C14.1845 20.0756 14.0378 19.8816 13.9511 19.6546C13.8645 19.4277 13.8418 19.1779 13.886 18.9369C13.9301 18.696 14.0391 18.4747 14.1993 18.301C14.3593 18.1272 14.5633 18.0089 14.7854 17.961C15.0074 17.9131 15.2376 17.9377 15.4468 18.0317C15.656 18.1257 15.8348 18.2849 15.9606 18.4892C16.0864 18.6934 16.1535 18.9336 16.1535 19.1793C16.1532 19.5086 16.0325 19.8244 15.8179 20.0573C15.6032 20.2902 15.3122 20.4211 15.0087 20.4215Z" fill="#F77457"/>
<path d="M18.9518 3.06595L4.26079 2.8252L3.85779 1.5C3.72564 1.064 3.47009 0.6843 3.12759 0.415C2.78504 0.1457 2.37296 0.00045 1.94996 0H0.431985C0.317416 0 0.207537 0.0493995 0.126522 0.1373C0.0455117 0.2252 0 0.34445 0 0.46875C0 0.59305 0.0455117 0.7123 0.126522 0.8002C0.207537 0.8881 0.317416 0.9375 0.431985 0.9375H1.94996C2.19132 0.9382 2.42627 1.02145 2.62155 1.17535C2.81679 1.32925 2.9624 1.546 3.03769 1.7948L3.54658 3.46405L5.89483 11.1647L5.68314 11.7208C5.55749 12.0512 5.50897 12.4102 5.54191 12.7658C5.57481 13.1214 5.68821 13.4626 5.87193 13.7593C6.05564 14.0559 6.30405 14.2986 6.59504 14.466C6.88602 14.6334 7.21064 14.7203 7.54001 14.7188H16.3101C16.4247 14.7188 16.5346 14.6693 16.6156 14.5814C16.6966 14.4935 16.7421 14.3743 16.7421 14.25C16.7421 14.1257 16.6966 14.0065 16.6156 13.9186C16.5346 13.8307 16.4247 13.7812 16.3101 13.7812H7.54001C7.35238 13.7826 7.16742 13.7337 7.00149 13.6387C6.83561 13.5436 6.69397 13.4055 6.58918 13.2366C6.48445 13.0678 6.41985 12.8733 6.40114 12.6708C6.38243 12.4682 6.41026 12.2638 6.48205 12.0758L6.64812 11.6411L16.1403 10.5865C16.6473 10.5298 17.1256 10.3038 17.5093 9.93955C17.8929 9.57535 18.1629 9.09095 18.282 8.5532L19.3654 3.6436C19.3804 3.5753 19.3811 3.5042 19.3675 3.43555C19.3538 3.36695 19.326 3.3025 19.2864 3.24705C19.2467 3.1916 19.196 3.14655 19.138 3.1152C19.0802 3.08385 19.0165 3.067 18.9518 3.06595ZM17.4418 8.3354C17.3644 8.6843 17.1893 8.9986 16.9403 9.2349C16.6915 9.4712 16.3811 9.61785 16.0521 9.65465L6.66231 10.6987L4.54832 3.76755L18.3995 3.99455L17.4418 8.3354Z" fill="#F77457"/>
</svg>
