<svg width="32" height="26" viewBox="0 0 32 26" fill="none" xmlns="http://www.w3.org/2000/svg">
<path d="M13.3333 23.8333C13.3333 25.0308 12.4373 26 11.3333 26C10.2293 26 9.33333 25.0308 9.33333 23.8333C9.33333 22.6373 10.2293 21.6667 11.3333 21.6667C12.4373 21.6667 13.3333 22.6373 13.3333 23.8333ZM18 21.6667C16.896 21.6667 16 22.6359 16 23.8333C16 25.0308 16.896 26 18 26C19.104 26 20 25.0308 20 23.8333C20 22.6373 19.104 21.6667 18 21.6667ZM26.4067 0L21.8307 17.3333H7.92667L4.01067 7.22222H18.8933L17.0107 14.4444H19.7813L22.4173 4.33333H0L6.15333 20.2222H23.8053L28.4373 2.88889H31.0093L32 0H26.4067Z" fill="#F77457"/>
</svg>
