<svg width="23" height="48" viewBox="0 0 23 48" fill="none" xmlns="http://www.w3.org/2000/svg">
<path d="M7.92383 44.6318C7.92383 43.8506 8.15169 43.1995 8.60742 42.6787C9.07943 42.1579 9.7793 41.8975 10.707 41.8975C11.6348 41.8975 12.3346 42.1579 12.8066 42.6787C13.2949 43.1995 13.5391 43.8506 13.5391 44.6318C13.5391 45.3805 13.2949 46.0072 12.8066 46.5117C12.3346 47.0163 11.6348 47.2686 10.707 47.2686C9.7793 47.2686 9.07943 47.0163 8.60742 46.5117C8.15169 46.0072 7.92383 45.3805 7.92383 44.6318Z" fill="#00EFD1"/>
<path d="M20.7939 20.5462L23 22L11.4981 29.5833L0 22L2.20513 20.5462L11.4981 26.6757L20.7939 20.5462V20.5462ZM11.4981 32.0913L2.20513 25.9618L0 27.4167L11.4981 35L23 27.4167L20.7939 25.9628L11.4981 32.0913ZM11.4981 11.5079L19.1954 16.5833L11.4981 21.6588L3.80363 16.5833L11.4981 11.5079ZM11.4981 9L0 16.5833L11.4981 24.1667L23 16.5833L11.4981 9V9Z" fill="white"/>
</svg>
