<svg width="24" height="22" viewBox="0 0 24 22" fill="none" xmlns="http://www.w3.org/2000/svg">
<path d="M17.515 2C19.897 2 22.002 3.564 22.002 6.712C22.002 11.675 15.474 15.009 11.999 18.647C8.524 15.009 1.997 11.676 1.997 6.713C1.997 3.658 4.005 2 6.484 2C9.664 2 11.33 5.644 11.999 7.312C12.666 5.646 14.332 2 17.515 2ZM17.515 0C15.341 0 13.169 1.062 11.999 3.419C10.829 1.062 8.657 0 6.484 0C3.081 0 0 2.39 0 6.689C0 13.959 9.903 17.627 11.999 22C14.095 17.627 23.999 13.959 23.999 6.689C23.999 2.103 20.585 0 17.515 0Z" fill="#F77457"/>
</svg>
