<svg width="37" height="23" viewBox="0 0 37 23" fill="none" xmlns="http://www.w3.org/2000/svg">
<path d="M34.6778 0H2.32218C1.03208 0 0 0.888889 0 2C0 3.11111 1.03208 4 2.32218 4H34.6778C35.9679 4 37 3.11111 37 2C37 0.888889 35.9679 0 34.6778 0Z" fill="black"/>
<path d="M2.32218 12.8837H19.1967C20.4867 12.8837 21.5188 11.9948 21.5188 10.8837C21.5188 9.77262 20.4867 8.88373 19.1967 8.88373H2.32218C1.03208 8.88373 0 9.77262 0 10.8837C0 11.9948 1.03208 12.8837 2.32218 12.8837Z" fill="black"/>
<path d="M29.5174 17.7675H2.32218C1.03208 17.7675 0 18.6563 0 19.7675C0 20.8786 1.03208 21.7675 2.32218 21.7675H29.5174C30.8075 21.7675 31.8396 20.8786 31.8396 19.7675C31.8396 18.6563 30.8075 17.7675 29.5174 17.7675Z" fill="black"/>
</svg>
