<svg width="23" height="48" viewBox="0 0 23 48" fill="none" xmlns="http://www.w3.org/2000/svg">
<path d="M19.1667 16.2008V10.1818H16.2917V12.6554L19.1667 16.2008ZM23 23.1818L11.5 9L0 23.1818H2.875V35H9.58333V29.0909H13.4167V35H20.125V23.1818H23ZM18.2083 32.6364H15.3333V26.7273H7.66667V32.6364H4.79167V20.5109L11.5 12.3422L18.2083 20.6031V32.6364Z" fill="white"/>
<path d="M9.92383 44.6318C9.92383 43.8506 10.1517 43.1995 10.6074 42.6787C11.0794 42.1579 11.7793 41.8975 12.707 41.8975C13.6348 41.8975 14.3346 42.1579 14.8066 42.6787C15.2949 43.1995 15.5391 43.8506 15.5391 44.6318C15.5391 45.3805 15.2949 46.0072 14.8066 46.5117C14.3346 47.0163 13.6348 47.2686 12.707 47.2686C11.7793 47.2686 11.0794 47.0163 10.6074 46.5117C10.1517 46.0072 9.92383 45.3805 9.92383 44.6318Z" fill="#00EFD1"/>
</svg>
