<svg width="23" height="22" viewBox="0 0 23 22" fill="none" xmlns="http://www.w3.org/2000/svg">
<path d="M22.3198 18.3861L17.5132 13.8239C18.4451 12.4306 18.984 10.7788 18.984 9.01063C18.984 4.04241 14.726 0 9.49154 0C4.25709 0 0 4.04241 0 9.01063C0 13.9788 4.25709 18.0213 9.4925 18.0213C11.2637 18.0213 12.9229 17.5583 14.3426 16.7535L19.1917 21.356C21.2623 23.3185 24.3914 20.3514 22.3198 18.3861ZM2.94268 9.01063C2.94268 5.58329 5.88151 2.79394 9.4925 2.79394C13.1035 2.79394 16.0423 5.58237 16.0423 9.01063C16.0423 12.4389 13.1035 15.2273 9.4925 15.2273C5.88151 15.2273 2.94268 12.438 2.94268 9.01063ZM4.88387 7.39366C6.79995 3.17801 13.2513 3.66658 14.4662 8.08023C12.0189 5.35413 7.7126 5.0608 4.88387 7.39366Z" fill="black" fill-opacity="0.175"/>
</svg>
