<svg width="94" height="47" viewBox="0 0 94 47" fill="none" xmlns="http://www.w3.org/2000/svg">
<path d="M94 0H0V47H94V0Z" fill="#1B242F"/>
<path d="M10.0087 32C9.61144 32 9.22309 32.1278 8.89275 32.3673C8.56242 32.6068 8.30493 32.9473 8.15292 33.3455C8.00086 33.7438 7.96109 34.1821 8.0386 34.6049C8.1161 35.0277 8.30742 35.4161 8.58836 35.7209C8.8693 36.0257 9.22719 36.2333 9.61688 36.3174C10.0065 36.4015 10.4104 36.3584 10.7775 36.1934C11.1445 36.0284 11.4582 35.7491 11.6789 35.3906C11.8996 35.0322 12.0175 34.6108 12.0175 34.1797C12.0169 33.6018 11.8051 33.0477 11.4285 32.6391C11.0519 32.2305 10.5413 32.0006 10.0087 32ZM10.0087 35.4215C9.78234 35.4215 9.56098 35.3486 9.37275 35.2121C9.18448 35.0756 9.03776 34.8816 8.95114 34.6546C8.86446 34.4277 8.84179 34.1779 8.88598 33.9369C8.93017 33.696 9.03919 33.4747 9.19927 33.301C9.35939 33.1272 9.56333 33.0089 9.78543 32.961C10.0075 32.9131 10.2376 32.9377 10.4468 33.0317C10.656 33.1257 10.8348 33.2849 10.9606 33.4892C11.0864 33.6934 11.1535 33.9336 11.1535 34.1793C11.1532 34.5086 11.0325 34.8244 10.8179 35.0573C10.6033 35.2902 10.3122 35.4211 10.0087 35.4215Z" fill="#F77457"/>
<path d="M17.0087 32C16.6114 32 16.2231 32.1278 15.8928 32.3673C15.5624 32.6068 15.3049 32.9473 15.1529 33.3455C15.0009 33.7438 14.9611 34.1821 15.0386 34.6049C15.1161 35.0277 15.3074 35.4161 15.5883 35.7209C15.8693 36.0257 16.2272 36.2333 16.6168 36.3174C17.0065 36.4015 17.4104 36.3584 17.7775 36.1934C18.1445 36.0284 18.4582 35.7491 18.6789 35.3906C18.8996 35.0322 19.0175 34.6108 19.0175 34.1797C19.0169 33.6018 18.8051 33.0477 18.4285 32.6391C18.0519 32.2305 17.5413 32.0006 17.0087 32ZM17.0087 35.4215C16.7823 35.4215 16.561 35.3486 16.3728 35.2121C16.1845 35.0756 16.0378 34.8816 15.9511 34.6546C15.8645 34.4277 15.8418 34.1779 15.886 33.9369C15.9301 33.696 16.0391 33.4747 16.1993 33.301C16.3593 33.1272 16.5633 33.0089 16.7854 32.961C17.0074 32.9131 17.2376 32.9377 17.4468 33.0317C17.656 33.1257 17.8348 33.2849 17.9606 33.4892C18.0864 33.6934 18.1535 33.9336 18.1535 34.1793C18.1532 34.5086 18.0325 34.8244 17.8179 35.0573C17.6032 35.2902 17.3122 35.4211 17.0087 35.4215Z" fill="#F77457"/>
<path d="M20.9518 18.066L6.26079 17.8252L5.85779 16.5C5.72564 16.064 5.47009 15.6843 5.12759 15.415C4.78504 15.1457 4.37296 15.0004 3.94996 15H2.43199C2.31742 15 2.20754 15.0494 2.12652 15.1373C2.04551 15.2252 2 15.3444 2 15.4688C2 15.5931 2.04551 15.7123 2.12652 15.8002C2.20754 15.8881 2.31742 15.9375 2.43199 15.9375H3.94996C4.19132 15.9382 4.42627 16.0215 4.62155 16.1754C4.81679 16.3293 4.9624 16.546 5.03769 16.7948L5.54658 18.4641L7.89483 26.1647L7.68314 26.7208C7.55749 27.0512 7.50897 27.4102 7.54191 27.7658C7.57481 28.1214 7.68821 28.4626 7.87193 28.7593C8.05564 29.0559 8.30405 29.2986 8.59504 29.466C8.88602 29.6334 9.21064 29.7203 9.54001 29.7188H18.3101C18.4247 29.7188 18.5346 29.6693 18.6156 29.5814C18.6966 29.4935 18.7421 29.3743 18.7421 29.25C18.7421 29.1257 18.6966 29.0065 18.6156 28.9186C18.5346 28.8307 18.4247 28.7812 18.3101 28.7812H9.54001C9.35238 28.7826 9.16742 28.7337 9.00149 28.6387C8.83561 28.5436 8.69397 28.4055 8.58918 28.2366C8.48445 28.0678 8.41985 27.8733 8.40114 27.6708C8.38243 27.4682 8.41026 27.2638 8.48205 27.0758L8.64812 26.6411L18.1403 25.5865C18.6473 25.5298 19.1256 25.3038 19.5093 24.9396C19.8929 24.5754 20.1629 24.091 20.282 23.5532L21.3654 18.6436C21.3804 18.5753 21.3811 18.5042 21.3675 18.4356C21.3538 18.367 21.326 18.3025 21.2864 18.247C21.2467 18.1916 21.196 18.1465 21.138 18.1152C21.0802 18.0839 21.0165 18.067 20.9518 18.066ZM19.4418 23.3354C19.3644 23.6843 19.1893 23.9986 18.9403 24.2349C18.6915 24.4712 18.3811 24.6178 18.0521 24.6546L8.66231 25.6987L6.54832 18.7675L20.3995 18.9946L19.4418 23.3354Z" fill="#F77457"/>
<path d="M36.7466 23.5146C36.7466 24.7685 36.5523 25.8642 36.1635 26.8017C35.7747 27.7334 35.2239 28.4453 34.5111 28.9375C33.7983 29.4297 32.9668 29.6758 32.0164 29.6758C31.0876 29.6758 30.2642 29.4297 29.546 28.9375C28.8278 28.4394 28.2689 27.7334 27.8693 26.8193C27.4752 25.8994 27.2727 24.8359 27.2619 23.6289V22.706C27.2619 21.4756 27.459 20.3886 27.8532 19.4453C28.2473 18.5019 28.8035 17.7812 29.5217 17.2832C30.2453 16.7793 31.0714 16.5273 32.0002 16.5273C32.9452 16.5273 33.7767 16.7763 34.4949 17.2744C35.2185 17.7666 35.7747 18.4844 36.1635 19.4277C36.5523 20.3652 36.7466 21.458 36.7466 22.706V23.5146ZM35.1996 22.6885C35.1996 21.1709 34.9188 20.0078 34.3572 19.1992C33.7957 18.3847 33.01 17.9775 32.0002 17.9775C31.0175 17.9775 30.2426 18.3847 29.6756 19.1992C29.114 20.0078 28.8251 21.1328 28.8089 22.5742V23.5146C28.8089 24.9853 29.0924 26.1426 29.6594 26.9863C30.2318 27.8242 31.0175 28.2431 32.0164 28.2431C33.0208 28.2431 33.7983 27.8476 34.3491 27.0566C34.8999 26.2597 35.1834 25.1201 35.1996 23.6377V22.6885ZM44.2551 28.5595C43.6719 29.3037 42.816 29.6758 41.6875 29.6758C40.7533 29.6758 40.0405 29.3828 39.5492 28.7969C39.0632 28.2051 38.8175 27.332 38.8121 26.1777V19.9902H40.3105V26.1338C40.3105 27.5752 40.8505 28.2959 41.9304 28.2959C43.0752 28.2959 43.8366 27.833 44.2146 26.9072V19.9902H45.713V29.5H44.2875L44.2551 28.5595ZM52.2331 21.4492C52.0064 21.4082 51.7608 21.3877 51.4963 21.3877C50.5135 21.3877 49.8467 21.8418 49.4956 22.75V29.5H47.9971V19.9902H49.4551L49.4795 21.0888C49.9707 20.2392 50.6674 19.8144 51.5691 19.8144C51.8608 19.8144 52.082 19.8554 52.2331 19.9375V21.4492ZM56.8502 23.5498L55.4084 25.1758V29.5H53.8532V16.7031H55.4084V23.0312L60.6489 16.7031H62.528L57.8869 22.3545L62.8924 29.5H61.0295L56.8502 23.5498ZM69.4291 29.5C69.3425 29.3125 69.2725 28.9785 69.2185 28.498C68.5218 29.2832 67.6901 29.6758 66.7239 29.6758C65.8599 29.6758 65.1498 29.4121 64.5937 28.8847C64.0426 28.3515 63.7675 27.6777 63.7675 26.8633C63.7675 25.873 64.1131 25.1054 64.8042 24.5605C65.5005 24.0097 66.4778 23.7344 67.7362 23.7344H69.1941V22.9873C69.1941 22.4189 69.0375 21.9677 68.7241 21.6338C68.4113 21.2939 67.9496 21.124 67.3395 21.124C66.8045 21.124 66.3566 21.2705 65.9949 21.5635C65.6332 21.8564 65.4521 22.2109 65.4521 22.6269H63.9453C63.9453 22.1523 64.0992 21.6953 64.407 21.2558C64.7204 20.8105 65.1415 20.459 65.671 20.2011C66.2055 19.9433 66.7911 19.8144 67.4284 19.8144C68.438 19.8144 69.2291 20.0898 69.8014 20.6406C70.3742 21.1855 70.6709 21.9385 70.6926 22.8994V27.2763C70.6926 28.1494 70.7954 28.8437 71.0004 29.3594V29.5H69.4291ZM66.9423 28.2607C67.4123 28.2607 67.8579 28.1289 68.279 27.8652C68.7002 27.6015 69.0052 27.2588 69.1941 26.8369V24.8857H68.0196C66.1838 24.8857 65.2659 25.4687 65.2659 26.6347C65.2659 27.1445 65.4221 27.5429 65.7355 27.8301C66.0488 28.1172 66.4511 28.2607 66.9423 28.2607ZM77.2777 21.4492C77.051 21.4082 76.8054 21.3877 76.5404 21.3877C75.558 21.3877 74.8908 21.8418 74.5401 22.75V29.5H73.0417V19.9902H74.4996L74.5236 21.0888C75.0152 20.2392 75.7119 19.8144 76.6137 19.8144C76.9049 19.8144 77.1265 19.8554 77.2777 19.9375V21.4492ZM81.1008 17.6875V19.9902H82.737V21.247H81.1008V27.1445C81.1008 27.5254 81.1736 27.8125 81.3192 28.0058C81.4653 28.1933 81.7136 28.2871 82.0648 28.2871C82.2376 28.2871 82.4749 28.2519 82.7776 28.1816V29.5C82.3832 29.6172 81.9998 29.6758 81.627 29.6758C80.9575 29.6758 80.4529 29.456 80.1124 29.0166C79.7724 28.5771 79.6023 27.9531 79.6023 27.1445V21.247H78.0066V19.9902H79.6023V17.6875H81.1008Z" fill="white"/>
<path d="M88.701 30.5C90.1006 30.5 91.2353 29.2688 91.2353 27.75C91.2353 26.2312 90.1006 25 88.701 25C87.3013 25 86.1667 26.2312 86.1667 27.75C86.1667 29.2688 87.3013 30.5 88.701 30.5Z" fill="#F77457"/>
</svg>
