<svg width="23" height="21" viewBox="0 0 23 21" fill="none" xmlns="http://www.w3.org/2000/svg">
<path d="M14.96 10.4493V1.13448C14.9604 1.10727 14.9548 1.08028 14.9438 1.05508C14.9327 1.02988 14.9164 1.00698 14.8956 0.987742C14.8749 0.968502 14.8502 0.953306 14.8231 0.943046C14.7959 0.932786 14.7668 0.92767 14.7375 0.928H1.2225C1.19318 0.92767 1.16409 0.932786 1.13693 0.943046C1.10978 0.953306 1.08511 0.968502 1.06438 0.987742C1.04365 1.00698 1.02727 1.02988 1.01621 1.05508C1.00516 1.08028 0.999645 1.10727 1 1.13448V17.3513C0.999645 17.3785 1.00516 17.4055 1.01621 17.4307C1.02727 17.4559 1.04365 17.4788 1.06438 17.498C1.08511 17.5172 1.10978 17.5324 1.13694 17.5427C1.16409 17.553 1.19318 17.5581 1.2225 17.5577H11.105C11.2009 17.8769 11.3272 18.1874 11.4825 18.4857H1.2225C0.898294 18.4857 0.587381 18.3661 0.35813 18.1534C0.128879 17.9407 6.03186e-05 17.6521 0 17.3513V1.13448C5.50154e-05 0.833613 0.128871 0.545084 0.358122 0.332339C0.587373 0.119594 0.898287 5.16695e-05 1.2225 0H14.7375C15.0617 5.10544e-05 15.3726 0.119593 15.6019 0.332338C15.8311 0.545083 15.9599 0.833613 15.96 1.13448V10.1848C15.6192 10.2464 15.2846 10.3349 14.96 10.4493ZM13.0051 2.97488H5.8081V3.80999H13.0051V2.97488ZM13.0051 5.90014H5.8081V6.73525H13.0051V5.90014ZM13.0051 8.8254H5.8081V9.66051H13.0051V8.8254ZM12.76 11.7508H5.80749V12.586H11.9975C12.2226 12.2859 12.4779 12.0062 12.76 11.7508ZM5.80749 15.5115H10.875C10.896 15.2304 10.9403 14.9512 11.0075 14.6763H5.80749V15.5115ZM4.11364 2.25693H2.49406V3.75992H4.11364V2.25693ZM4.11364 5.18222H2.49406V6.68521H4.11364V5.18222ZM4.11364 8.10749H2.49406V9.61048H4.11364V8.10749ZM4.11364 11.0328H2.49406V12.5358H4.11364V11.0328ZM2.49406 15.461H4.11364V13.958H2.49406V15.461ZM15.2138 15.5331C15.1674 15.4899 15.1123 15.4556 15.0516 15.4322C14.9909 15.4088 14.9259 15.3967 14.8601 15.3966C14.7944 15.3966 14.7293 15.4085 14.6685 15.4318C14.6078 15.4552 14.5526 15.4894 14.5061 15.5325C14.4596 15.5756 14.4228 15.6269 14.3977 15.6832C14.3725 15.7396 14.3596 15.8 14.3597 15.861C14.3598 15.922 14.3728 15.9824 14.398 16.0387C14.4233 16.095 14.4602 16.1462 14.5068 16.1893L16.5006 18.0394C16.547 18.0825 16.6021 18.1166 16.6628 18.14C16.7234 18.1633 16.7884 18.1753 16.8541 18.1753C16.9197 18.1753 16.9848 18.1633 17.0454 18.14C17.1061 18.1166 17.1612 18.0825 17.2076 18.0394L22.3535 13.2639C22.4469 13.1768 22.4994 13.0589 22.4992 12.936C22.4991 12.8131 22.4464 12.6953 22.3528 12.6084C22.2592 12.5215 22.1322 12.4726 21.9998 12.4725C21.8673 12.4724 21.7403 12.521 21.6464 12.6077L16.8541 17.0552L15.2138 15.5331ZM21.8926 15.0034C21.7671 15.0268 21.6552 15.0922 21.5783 15.1872C21.5015 15.2821 21.4649 15.4 21.4757 15.5184C21.5797 16.4215 21.3504 17.3305 20.8254 18.097C20.3004 18.8635 19.5108 19.442 18.5856 19.738C17.6604 20.0341 16.6543 20.0301 15.7319 19.7267C14.8094 19.4234 14.0251 18.8386 13.5072 18.068C12.9893 17.2974 12.7684 16.3866 12.8807 15.4844C12.9929 14.5821 13.4316 13.742 14.1251 13.1011C14.8185 12.4603 15.7258 12.0567 16.6984 11.9564C17.6711 11.856 18.6517 12.0649 19.4799 12.5487C19.772 12.7194 20.1283 12.7344 20.3076 12.5396C20.3498 12.4839 20.3788 12.4207 20.3929 12.354C20.4071 12.2873 20.4059 12.2186 20.3896 12.1523C20.3732 12.0861 20.342 12.0237 20.2981 11.9694C20.2541 11.915 20.1983 11.8698 20.1343 11.8367C19.128 11.2133 17.9227 10.9268 16.7173 11.0245C15.512 11.1223 14.3785 11.5985 13.504 12.3745C12.6296 13.1506 12.0663 14.1801 11.9072 15.2932C11.7481 16.4063 12.0027 17.5365 12.629 18.4972C13.2552 19.458 14.2157 20.1919 15.352 20.5779C16.4882 20.9639 17.7323 20.9788 18.8789 20.6203C20.0256 20.2618 21.0062 19.5513 21.6591 18.6059C22.312 17.6606 22.5981 16.5369 22.4702 15.4203C22.4653 15.3564 22.446 15.2942 22.4135 15.2377C22.3811 15.1812 22.3361 15.1316 22.2816 15.0923C22.2271 15.053 22.1643 15.0247 22.0973 15.0094C22.0303 14.9941 21.9605 14.9921 21.8926 15.0034H21.8926Z" fill="#1F5FE0"/>
</svg>
