<svg width="23" height="48" viewBox="0 0 23 48" fill="none" xmlns="http://www.w3.org/2000/svg">
<path d="M7.92383 44.6318C7.92383 43.8506 8.15169 43.1995 8.60742 42.6787C9.07943 42.1579 9.7793 41.8975 10.707 41.8975C11.6348 41.8975 12.3346 42.1579 12.8066 42.6787C13.2949 43.1995 13.5391 43.8506 13.5391 44.6318C13.5391 45.3805 13.2949 46.0072 12.8066 46.5117C12.3346 47.0163 11.6348 47.2686 10.707 47.2686C9.7793 47.2686 9.07943 47.0163 8.60742 46.5117C8.15169 46.0072 7.92383 45.3805 7.92383 44.6318Z" fill="#00EFD1"/>
<path d="M22.3198 30.729L17.5132 25.3374C18.4451 23.6907 18.984 21.7386 18.984 19.6489C18.984 13.7774 14.726 9 9.49153 9C4.25709 9 0 13.7774 0 19.6489C0 25.5205 4.25709 30.2978 9.4925 30.2978C11.2637 30.2978 12.9229 29.7508 14.3426 28.7996L19.1917 34.2389C21.2623 36.5583 24.3914 33.0516 22.3198 30.729ZM2.94268 19.6489C2.94268 15.5984 5.88151 12.3019 9.4925 12.3019C13.1035 12.3019 16.0423 15.5973 16.0423 19.6489C16.0423 23.7005 13.1035 26.9959 9.4925 26.9959C5.88151 26.9959 2.94268 23.6994 2.94268 19.6489ZM4.88387 17.738C6.79995 12.7558 13.2513 13.3332 14.4662 18.5494C12.0189 15.3276 7.7126 14.9809 4.88387 17.738Z" fill="white"/>
</svg>
