<svg width="23" height="48" viewBox="0 0 23 48" fill="none" xmlns="http://www.w3.org/2000/svg">
<path d="M8.92383 44.6318C8.92383 43.8506 9.15169 43.1995 9.60742 42.6787C10.0794 42.1579 10.7793 41.8975 11.707 41.8975C12.6348 41.8975 13.3346 42.1579 13.8066 42.6787C14.2949 43.1995 14.5391 43.8506 14.5391 44.6318C14.5391 45.3805 14.2949 46.0072 13.8066 46.5117C13.3346 47.0163 12.6348 47.2686 11.707 47.2686C10.7793 47.2686 10.0794 47.0163 9.60742 46.5117C9.15169 46.0072 8.92383 45.3805 8.92383 44.6318Z" fill="#00EFD1"/>
<path d="M11.5 12C14.4057 12 16.7708 14.467 16.7708 17.5C16.7708 18.958 16.308 20.696 13.6582 23.09C17.5979 25.051 19.9851 28.343 20.8284 31.999H2.15433C3.06954 27.811 5.99246 24.6 9.36004 23.11C7.82575 21.823 6.22917 19.787 6.22917 17.5C6.22917 14.467 8.59433 12 11.5 12ZM11.5 10C7.53058 10 4.3125 13.357 4.3125 17.5C4.3125 19.512 5.07629 21.334 6.31158 22.682C1.49117 25.691 0 31.183 0 34H23C23 31.209 21.412 25.72 16.6846 22.686C17.9228 21.338 18.6875 19.514 18.6875 17.5C18.6875 13.357 15.4694 10 11.5 10Z" fill="white"/>
</svg>
