<svg width="23" height="24" viewBox="0 0 23 24" fill="none" xmlns="http://www.w3.org/2000/svg">
<path d="M11.5 2C14.4057 2 16.7708 4.467 16.7708 7.5C16.7708 8.958 16.308 10.696 13.6582 13.09C17.5979 15.051 19.9851 18.343 20.8284 21.999H2.15433C3.06954 17.811 5.99246 14.6 9.36004 13.11C7.82575 11.823 6.22917 9.787 6.22917 7.5C6.22917 4.467 8.59433 2 11.5 2ZM11.5 0C7.53058 0 4.3125 3.357 4.3125 7.5C4.3125 9.512 5.07629 11.334 6.31158 12.682C1.49117 15.691 0 21.183 0 24H23C23 21.209 21.412 15.72 16.6846 12.686C17.9228 11.338 18.6875 9.514 18.6875 7.5C18.6875 3.357 15.4694 0 11.5 0Z" fill="white"/>
</svg>
