<svg width="23" height="26" viewBox="0 0 23 26" fill="none" xmlns="http://www.w3.org/2000/svg">
<path d="M22.3198 21.729L17.5132 16.3374C18.4451 14.6907 18.984 12.7386 18.984 10.6489C18.984 4.77739 14.726 0 9.49154 0C4.25709 0 0 4.77739 0 10.6489C0 16.5205 4.25709 21.2978 9.4925 21.2978C11.2637 21.2978 12.9229 20.7508 14.3426 19.7996L19.1917 25.2389C21.2623 27.5583 24.3914 24.0516 22.3198 21.729ZM2.94268 10.6489C2.94268 6.59843 5.88151 3.30192 9.4925 3.30192C13.1035 3.30192 16.0423 6.59735 16.0423 10.6489C16.0423 14.7005 13.1035 17.9959 9.4925 17.9959C5.88151 17.9959 2.94268 14.6994 2.94268 10.6489ZM4.88387 8.73797C6.79995 3.75583 13.2513 4.33323 14.4662 9.54936C12.0189 6.3276 7.7126 5.98095 4.88387 8.73797Z" fill="#1F5FE0"/>
</svg>
